<svg width="593" height="96" viewBox="0 0 593 96" fill="none" xmlns="http://www.w3.org/2000/svg">
<path d="M120.064 33.256C122.08 33.256 123.736 31.672 123.736 29.656C123.736 27.64 122.08 25.984 120.064 25.984C118.12 25.984 116.464 27.64 116.464 29.656C116.464 31.672 118.12 33.256 120.064 33.256ZM122.8 73V38.224H117.4V73H122.8ZM160.444 73V48.592C160.444 41.032 156.628 37.36 149.356 37.36C144.172 37.36 139.42 40.384 136.972 43.264V38.224H131.572V73H136.972V47.584C138.988 44.776 143.02 42.184 147.268 42.184C151.948 42.184 155.044 44.128 155.044 50.248V73H160.444ZM184.564 73.864C190.9 73.864 194.644 71.272 197.308 67.816L193.708 64.504C191.404 67.6 188.452 69.04 184.852 69.04C177.436 69.04 172.828 63.28 172.828 55.576C172.828 47.872 177.436 42.184 184.852 42.184C188.452 42.184 191.404 43.552 193.708 46.72L197.308 43.408C194.644 39.952 190.9 37.36 184.564 37.36C174.196 37.36 167.212 45.28 167.212 55.576C167.212 65.944 174.196 73.864 184.564 73.864ZM218.069 73.864C228.653 73.864 235.277 65.656 235.277 55.576C235.277 45.496 228.653 37.36 218.069 37.36C207.485 37.36 200.861 45.496 200.861 55.576C200.861 65.656 207.485 73.864 218.069 73.864ZM218.069 69.04C210.653 69.04 206.477 62.704 206.477 55.576C206.477 48.52 210.653 42.184 218.069 42.184C225.485 42.184 229.589 48.52 229.589 55.576C229.589 62.704 225.485 69.04 218.069 69.04ZM247.48 73V48.376C249.064 45.568 253.6 42.832 256.912 42.832C257.776 42.832 258.424 42.904 259.072 43.048V37.504C254.32 37.504 250.288 40.168 247.48 43.84V38.224H242.08V73H247.48ZM280.981 73.864C290.125 73.864 296.461 66.808 296.461 55.576C296.461 44.272 290.125 37.36 280.981 37.36C276.085 37.36 271.765 39.88 269.245 43.408V38.224H263.845V86.248H269.245V67.744C272.053 71.632 276.229 73.864 280.981 73.864ZM279.613 69.04C275.365 69.04 271.117 66.448 269.245 63.424V47.728C271.117 44.704 275.365 42.184 279.613 42.184C286.597 42.184 290.773 47.872 290.773 55.576C290.773 63.28 286.597 69.04 279.613 69.04ZM318.24 73.864C328.824 73.864 335.448 65.656 335.448 55.576C335.448 45.496 328.824 37.36 318.24 37.36C307.656 37.36 301.032 45.496 301.032 55.576C301.032 65.656 307.656 73.864 318.24 73.864ZM318.24 69.04C310.824 69.04 306.648 62.704 306.648 55.576C306.648 48.52 310.824 42.184 318.24 42.184C325.656 42.184 329.76 48.52 329.76 55.576C329.76 62.704 325.656 69.04 318.24 69.04ZM347.652 73V48.376C349.236 45.568 353.772 42.832 357.084 42.832C357.948 42.832 358.596 42.904 359.244 43.048V37.504C354.492 37.504 350.46 40.168 347.652 43.84V38.224H342.252V73H347.652ZM391.161 73V49.096C391.161 40.672 385.041 37.36 377.697 37.36C372.009 37.36 367.545 39.232 363.801 43.12L366.321 46.864C369.417 43.552 372.801 42.04 376.977 42.04C382.017 42.04 385.761 44.704 385.761 49.384V55.648C382.953 52.408 378.993 50.896 374.241 50.896C368.337 50.896 362.073 54.568 362.073 62.344C362.073 69.904 368.337 73.864 374.241 73.864C378.921 73.864 382.881 72.208 385.761 69.04V73H391.161ZM376.185 69.976C371.145 69.976 367.617 66.808 367.617 62.416C367.617 57.952 371.145 54.784 376.185 54.784C380.001 54.784 383.673 56.224 385.761 59.104V65.656C383.673 68.536 380.001 69.976 376.185 69.976ZM408.77 73.864C411.938 73.864 413.882 72.928 415.25 71.632L413.666 67.6C412.946 68.392 411.506 69.04 409.994 69.04C407.618 69.04 406.466 67.168 406.466 64.576V42.976H413.522V38.224H406.466V28.72H401.066V38.224H395.306V42.976H401.066V65.728C401.066 70.912 403.658 73.864 408.77 73.864ZM434.846 73.864C440.534 73.864 445.214 71.992 448.67 68.536L446.078 65.008C443.342 67.816 439.31 69.4 435.35 69.4C427.862 69.4 423.254 63.928 422.822 57.376H450.974V56.008C450.974 45.568 444.782 37.36 434.27 37.36C424.334 37.36 417.134 45.496 417.134 55.576C417.134 66.448 424.55 73.864 434.846 73.864ZM445.646 53.416H422.822C423.11 48.088 426.782 41.824 434.198 41.824C442.118 41.824 445.574 48.232 445.646 53.416Z" fill="#1F2D40"/>
<path d="M490.984 73V48.376C490.984 41.968 487.384 37.36 479.464 37.36C473.632 37.36 469.528 40.024 467.44 42.472V38.224H456.352V73H467.44V50.536C468.736 48.952 470.896 47.152 474.208 47.152C477.664 47.152 479.896 48.664 479.896 52.912V73H490.984ZM513.664 73.864C525.616 73.864 532.672 65.368 532.672 55.576C532.672 45.784 525.616 37.36 513.664 37.36C501.856 37.36 494.728 45.784 494.728 55.576C494.728 65.368 501.856 73.864 513.664 73.864ZM513.664 64.072C508.84 64.072 506.176 60.256 506.176 55.576C506.176 50.968 508.84 47.152 513.664 47.152C518.56 47.152 521.296 50.968 521.296 55.576C521.296 60.256 518.56 64.072 513.664 64.072ZM579.284 73L589.58 38.224H578.132L572.588 59.536L565.748 38.224H555.884L549.044 59.536L543.428 38.224H532.052L542.348 73H554.3L560.78 51.472L567.332 73H579.284Z" fill="#0077FF"/>
<path d="M48 96C74.5097 96 96 74.5097 96 48C96 21.4903 74.5097 0 48 0C21.4903 0 0 21.4903 0 48C0 74.5097 21.4903 96 48 96Z" fill="#0077FF"/>
<path d="M34.5 30C38.6421 30 42 26.6421 42 22.5C42 18.3579 38.6421 15 34.5 15C30.3579 15 27 18.3579 27 22.5C27 26.6421 30.3579 30 34.5 30Z" fill="white"/>
<path d="M41 34H28V73H41V34Z" fill="white"/>
<path d="M52 33C47.9893 33 43.4186 34.5226 41 38V51C41 46.8282 43.8282 44 48 44C52 44 55 46.5 55 51V72.9974H68V49C68 38.5 62 33 52 33Z" fill="url(#paint0_linear)"/>
<defs>
<linearGradient id="paint0_linear" x1="44.2409" y1="72.6109" x2="66.5283" y2="72.6109" gradientUnits="userSpaceOnUse">
<stop stop-color="white" stop-opacity="0.5"/>
<stop offset="0.445518" stop-color="white"/>
<stop offset="1" stop-color="white"/>
</linearGradient>
</defs>
</svg>
